<?xml version="1.0" encoding="utf-8"?>
<!-- Generator: Adobe Illustrator 25.4.1, SVG Export Plug-In . SVG Version: 6.00 Build 0)  -->
<svg version="1.1" id="Layer_1" xmlns="http://www.w3.org/2000/svg" xmlns:xlink="http://www.w3.org/1999/xlink" x="0px" y="0px"
	 viewBox="0 0 100 100" style="enable-background:new 0 0 100 100;" xml:space="preserve">
<style type="text/css">
	.st0{fill:#009D9D;}
</style>
<g>
	<path class="st0" d="M14.1,14.7L11.2,4.2H0v4.3h7.9l2.4,8.9l8.3,42.9h1.8c-1,1.5-1.6,3.3-1.6,5.2c0,5.2,4.3,9.5,9.5,9.5h60.2v-4.3
		H28.4c-2.9,0-5.2-2.3-5.2-5.2s2.3-5.2,5.2-5.2H91l8.8-45.6H14.1z M57,19h16.7l-3.6,37H57V19z M52.7,56H39.6L36,19h16.7V56z
		 M22.2,56L15,19h16.7l3.6,37H22.2z M87.4,56H74.4l3.6-37h16.7L87.4,56z"/>
	<path class="st0" d="M28.2,78.2c-5.1,0-9.3,4.2-9.3,9.3s4.2,9.3,9.3,9.3c5.1,0,9.3-4.2,9.3-9.3S33.4,78.2,28.2,78.2z M28.2,92.5
		c-2.8,0-5-2.3-5-5s2.3-5,5-5c2.8,0,5,2.3,5,5S31,92.5,28.2,92.5z"/>
	<path class="st0" d="M81.4,78.2c-5.1,0-9.3,4.2-9.3,9.3s4.2,9.3,9.3,9.3s9.3-4.2,9.3-9.3S86.5,78.2,81.4,78.2z M81.4,92.5
		c-2.8,0-5-2.3-5-5s2.3-5,5-5c2.8,0,5,2.3,5,5S84.2,92.5,81.4,92.5z"/>
</g>
</svg>
